# xmcd
#
# Track frame offsets:
#	150
#	4619
#	39956
#	67225
#	91612
#	123148
#	163020
#	201124
#
# Disc length: 3451 seconds
#
# Revision: 1
# Processed by: cddbd v1.5.2PL0 Copyright (c) Steve Scherf et al.
# Submitted via: audiograbber 1.83.01
#
DISCID=5a0d7908
DTITLE=Cactus - Fully Unleashed The Live Gigs - Vol II, CD 1
DYEAR=2007
DGENRE=Bluesrock
TTITLE0=Intro - Tuning
TTITLE1=Long Tall Sally
TTITLE2=Parchman Farm
TTITLE3=Mellow Down Easy
TTITLE4=Feel So Bad
TTITLE5=Walkin' Blues
TTITLE6=Scrambler - One Way... Or Another
TTITLE7=Oleo
EXTD=
EXTT0=
EXTT1=
EXTT2=
EXTT3=
EXTT4=
EXTT5=
EXTT6=
EXTT7=
PLAYORDER=
